<?xml version="1.0" encoding="utf-8"?>
<!-- Generator: Adobe Illustrator 17.0.2, SVG Export Plug-In . SVG Version: 6.00 Build 0)  -->
<!DOCTYPE svg PUBLIC "-//W3C//DTD SVG 1.0//EN" "http://www.w3.org/TR/2001/REC-SVG-20010904/DTD/svg10.dtd">
<svg version="1.0" id="Layer_1" xmlns="http://www.w3.org/2000/svg" xmlns:xlink="http://www.w3.org/1999/xlink" x="0px" y="0px"
	 width="654px" height="116px" viewBox="0 0 654 116" enable-background="new 0 0 654 116" xml:space="preserve">
<path d="M49.75,79.112v-35.07h11.713v35.07H49.75z M63.777,75.605V44.043h11.713v31.562H63.777z M77.806,79.112v-35.07
	l11.713,11.713v23.356H77.806z"/>
<path d="M105.857,44.043v3.577l-11.433,8.136V44.043H105.857z M94.424,79.112V67.329l11.433-11.573v23.356H94.424z M119.604,79.112
	v-35.07h-11.363v35.07H119.604z"/>
<path d="M136.224,31.978v47.134h-11.713v-35.07L136.224,31.978z M138.539,43.692h11.713l-11.713,11.713V43.692z"/>
<path d="M163.599,31.978v47.134h-11.713v-35.07L163.599,31.978z M165.913,43.692h11.713l-11.713,11.713V43.692z"/>
<path d="M179.261,79.112V32.329h11.573v46.783H179.261z M204.651,79.112V55.756l-11.573-11.713v35.07H204.651z"/>
<path d="M221.061,44.043v35.07l-11.503-11.713V49.864L221.061,44.043z M223.375,67.399V44.043l11.503,11.713v11.643H223.375z"/>
<path d="M251.498,44.043v35.07l-11.713-11.713V44.043H251.498z M253.812,79.112V46.357h11.713v32.755H253.812z M267.84,44.043v35.07
	l11.713-11.713V44.043H267.84z"/>
<path d="M296.102,90.685h-11.643l11.643-11.573V90.685z M296.102,44.043v35.07l-11.503-11.643V49.934L296.102,44.043z
	 M298.417,91.176V44.043h11.503v35.07L298.417,91.176z"/>
<path d="M326.189,44.043v3.577l-11.433,8.136V44.043H326.189z M314.757,79.112V67.329l11.433-11.573v23.356H314.757z
	 M339.936,79.112v-35.07h-11.363v35.07H339.936z"/>
<path d="M344.843,79.112v-35.07h11.713v35.07H344.843z M370.583,44.043v23.356L358.87,55.756V44.043H370.583z"/>
<path d="M386.713,44.043v35.07L375.14,67.399V49.864L386.713,44.043z M400.53,79.112V32.329h-11.503v46.783H400.53z"/>
<path d="M416.94,32.329v11.713l-11.503-11.713H416.94z M405.437,79.112v-35.07h11.503v35.07H405.437z"/>
<path d="M421.849,79.112v-35.07h11.713v35.07H421.849z M435.876,79.112v-35.07l11.713,11.713v23.356H435.876z"/>
<path d="M464,44.043v35.07l-11.503-11.713V49.864L464,44.043z M466.314,67.399V44.043l11.502,11.713v11.643H466.314z"/>
<path d="M482.723,79.112v-35.07h11.714v35.07H482.723z M508.466,44.043v23.356l-11.713-11.643V44.043H508.466z"/>
<path d="M526.952,79.112v-35.07h11.713v35.07H526.952z M540.981,79.112v-35.07l11.713,11.713v23.356H540.981z"/>
<path d="M569.105,44.043v35.07l-11.503-11.713V49.864L569.105,44.043z M571.419,67.399V44.043l11.503,11.713v11.643H571.419z"/>
<path d="M599.54,31.978v47.134h-11.713v-35.07L599.54,31.978z M601.856,43.692h11.713l-11.713,11.713V43.692z"/>
<polygon points="511.754,79.112 511.754,72.767 523.467,67.399 523.467,79.112 "/>
</svg>
